<svg height="24" viewBox="0 0 24 24" width="24" xmlns="http://www.w3.org/2000/svg"><g fill="none" fill-rule="evenodd"><path d="m0 0h24v24h-24z" fill-rule="nonzero"/><path d="m17 3c1.597725 0 2.903664 1.24892392 2.9949075 2.82372764l.0050925.17627236v4.3501l.5939-.2639c.6137-.272765 1.3223954.1504962 1.3992452.7974127l.0068548.1163873v8c0 1.0543909-.81585 1.9181678-1.8507339 1.9945144l-.1492661.0054856h-16c-1.05436227 0-1.91816517-.81585-1.99451427-1.8507339l-.00548573-.1492661v-8c0-.6715944.6746366-1.14732003 1.29700147-.954806l.10913853.041006.59386.2639v-4.3501c0-1.59767679 1.24892392-2.90366059 2.82372764-2.99490729l.17627236-.00509271zm3 9.5388-7.1877 3.1945c-.5172.2298-1.1074.2298-1.6246 0l-7.1877-3.1945v6.4612h16zm-3-7.5388h-10c-.55228 0-1 .44772-1 1v5.239l6 2.6667 6-2.6667v-5.239c0-.55228-.4477-1-1-1zm-5 3c.5523 0 1 .44772 1 1 0 .51283143-.386027.93550653-.8833761.9932722l-.1166239.0067278h-2c-.55228 0-1-.44772-1-1 0-.51283143.38604429-.93550653.88337975-.9932722l.11662025-.0067278z" fill="#09244b"/></g></svg>